<svg width="254" height="131" viewBox="0 0 254 131" fill="none" xmlns="http://www.w3.org/2000/svg">
<path d="M8.15031 118.76H35.8703V30.83C35.8703 28.19 35.9603 25.52 36.1403 22.82L13.1003 42.53C12.5003 43.01 11.9003 43.37 11.3003 43.61C10.7003 43.79 10.1303 43.88 9.59031 43.88C8.69031 43.88 7.88031 43.7 7.16031 43.34C6.44031 42.92 5.90031 42.44 5.54031 41.9L0.500313 34.97L38.8403 1.75999H51.8903V118.76H77.2703V131H8.15031V118.76ZM136.144 78.08C131.284 78.08 126.664 77.27 122.284 75.65C117.964 74.03 114.154 71.66 110.854 68.54C107.554 65.36 104.914 61.49 102.934 56.93C101.014 52.31 100.054 47.03 100.054 41.09C100.054 35.45 101.104 30.17 103.204 25.25C105.304 20.33 108.244 16.04 112.024 12.38C115.804 8.71999 120.304 5.83999 125.524 3.74C130.744 1.63999 136.474 0.589989 142.714 0.589989C148.894 0.589989 154.504 1.60999 159.544 3.64999C164.584 5.69 168.904 8.54 172.504 12.2C176.104 15.86 178.864 20.24 180.784 25.34C182.764 30.44 183.754 36.08 183.754 42.26C183.754 45.98 183.394 49.52 182.674 52.88C182.014 56.18 181.024 59.42 179.704 62.6C178.384 65.78 176.794 68.96 174.934 72.14C173.134 75.26 171.064 78.5 168.724 81.86L137.314 127.22C136.534 128.36 135.424 129.29 133.984 130.01C132.544 130.67 130.894 131 129.034 131H114.274L153.514 79.61C154.834 77.87 156.064 76.22 157.204 74.66C158.344 73.1 159.424 71.54 160.444 69.98C157.144 72.62 153.424 74.63 149.284 76.01C145.144 77.39 140.764 78.08 136.144 78.08ZM168.364 40.37C168.364 36.35 167.704 32.72 166.384 29.48C165.124 26.18 163.354 23.39 161.074 21.11C158.794 18.83 156.064 17.09 152.884 15.89C149.764 14.63 146.314 14 142.534 14C138.574 14 134.944 14.66 131.644 15.98C128.404 17.24 125.614 19.01 123.274 21.29C120.994 23.57 119.224 26.3 117.964 29.48C116.704 32.66 116.074 36.14 116.074 39.92C116.074 44 116.644 47.66 117.784 50.9C118.984 54.08 120.664 56.78 122.824 59C125.044 61.22 127.714 62.9 130.834 64.04C134.014 65.18 137.554 65.75 141.454 65.75C145.774 65.75 149.584 65.06 152.884 63.68C156.244 62.24 159.064 60.35 161.344 58.01C163.624 55.67 165.364 52.97 166.564 49.91C167.764 46.85 168.364 43.67 168.364 40.37ZM225.528 0.589989C229.728 0.589989 233.508 1.24999 236.868 2.57C240.288 3.83 243.198 5.66 245.598 8.05999C247.998 10.46 249.858 13.4 251.178 16.88C252.498 20.3 253.158 24.14 253.158 28.4C253.158 32.72 252.498 36.62 251.178 40.1C249.858 43.58 247.998 46.55 245.598 49.01C243.198 51.41 240.288 53.27 236.868 54.59C233.508 55.85 229.728 56.48 225.528 56.48C221.268 56.48 217.428 55.85 214.008 54.59C210.588 53.27 207.648 51.41 205.188 49.01C202.788 46.55 200.928 43.58 199.608 40.1C198.288 36.62 197.628 32.72 197.628 28.4C197.628 24.14 198.288 20.3 199.608 16.88C200.928 13.4 202.788 10.46 205.188 8.05999C207.648 5.66 210.588 3.83 214.008 2.57C217.428 1.24999 221.268 0.589989 225.528 0.589989ZM225.528 46.94C230.568 46.94 234.318 45.38 236.778 42.26C239.298 39.08 240.558 34.49 240.558 28.49C240.558 22.49 239.298 17.93 236.778 14.81C234.318 11.69 230.568 10.13 225.528 10.13C220.308 10.13 216.438 11.69 213.918 14.81C211.458 17.93 210.228 22.49 210.228 28.49C210.228 34.49 211.458 39.08 213.918 42.26C216.438 45.38 220.308 46.94 225.528 46.94Z" fill="white"/>
</svg>
